<svg xmlns="http://www.w3.org/2000/svg" xmlns:xlink="http://www.w3.org/1999/xlink" width="55.399" height="55.399" viewBox="0 0 55.399 55.399"><defs><style>.a{fill:url(#a);}</style><linearGradient id="a" x1="0.5" x2="0.5" y2="1" gradientUnits="objectBoundingBox"><stop offset="0" stop-color="#dbd9c8"/><stop offset="1" stop-color="#88856a"/></linearGradient></defs><path class="a" d="M136.286,87.113A27.7,27.7,0,1,0,144.4,106.7,27.519,27.519,0,0,0,136.286,87.113Zm-27.86-3.425a22.643,22.643,0,0,0-2.4,3.847,36.45,36.45,0,0,0-2.976,8.885H94.515A24.588,24.588,0,0,1,108.426,83.688ZM92.246,106.7a24.376,24.376,0,0,1,1.032-7.033H102.5a53.536,53.536,0,0,0,0,14.066H93.278A24.376,24.376,0,0,1,92.246,106.7Zm2.269,10.279h8.538a36.45,36.45,0,0,0,2.976,8.886,22.645,22.645,0,0,0,2.4,3.847A24.588,24.588,0,0,1,94.515,116.978Zm20.562,13.9c-2.243-.748-4.418-3.013-6.145-6.467a32.575,32.575,0,0,1-2.562-7.434h8.707Zm0-17.147h-9.3a50.394,50.394,0,0,1,0-14.066h9.3Zm0-17.312H106.37a32.587,32.587,0,0,1,2.562-7.434c1.727-3.454,3.9-5.719,6.145-6.467Zm23.808,0h-8.538a36.451,36.451,0,0,0-2.976-8.885,22.648,22.648,0,0,0-2.4-3.847A24.588,24.588,0,0,1,138.884,96.42Zm-20.562-13.9c2.243.748,4.418,3.013,6.145,6.467a32.577,32.577,0,0,1,2.562,7.434h-8.707Zm0,17.147h9.3a50.4,50.4,0,0,1,0,14.066h-9.3Zm0,31.213v-13.9h8.707a32.59,32.59,0,0,1-2.562,7.434C122.74,127.866,120.565,130.131,118.322,130.879Zm6.65-1.169a22.642,22.642,0,0,0,2.4-3.847,36.45,36.45,0,0,0,2.976-8.886h8.538A24.588,24.588,0,0,1,124.973,129.711Zm5.924-15.978a53.538,53.538,0,0,0,0-14.066h9.224a24.471,24.471,0,0,1,0,14.066Z" transform="translate(-89 -79)"/></svg>